# xmcd
#
# Track frame offsets: 
#        150
#        9470
#        19682
#        30920
#        40501
#        51716
#        61653
#        71301
#        81645
#        92086
#        103210
#        113673
#        122484
#        132669
#        141120
#        149838
#        158278
#        170123
#        178665
#        190189
#        199759
#        210148
#        220645
#        232189
#        240884
#        251060
#        260326
#        271133
#        282111
#        291300
#        302215
#        311097
#
# Disc length: 4320 seconds
#
# Revision: 0
# Processed by: cddbd v1.5.2PL0 Copyright (c) Steve Scherf et al.
# Submitted via: ExactAudioCopyFreeDBPlugin 1.0
#
DISCID=ce10de20
DTITLE=Faron Young - The Faron Young Collection 1951-62 [CD-2)
DYEAR=2016
DGENRE=Country
TTITLE0=Turn Her Down
TTITLE1=I'll Be Satisfied With Love
TTITLE2=I Miss You Already (And Youre Not Even Gone)
TTITLE3=Im Gonna Live Some Before I Die
TTITLE4=The Shrine Of St. Cecilia
TTITLE5=Love Has Finally Come My Way
TTITLE6=Honey Stop! (And Think Of Me)
TTITLE7=Vacation's Over
TTITLE8=The Locket
TTITLE9=Snowball
TTITLE10=I Can't Dance
TTITLE11=Alone With You
TTITLE12=Everytime I'm Kissing You
TTITLE13=Thats The Way I Feel
TTITLE14=I Hate Myself (For Falling in Love With You)
TTITLE15=Last Night At the Party
TTITLE16=A Long Time Ago
TTITLE17=That's the Way It's Gotta Be
TTITLE18=Country Girl
TTITLE19=I Hear You Talkin'
TTITLE20=Riverboat
TTITLE21=Face to the Wall
TTITLE22=Your Old Used to Be
TTITLE23=There's Not Any Like You
TTITLE24=Forget the Past
TTITLE25=A World So Full of Love
TTITLE26=Hello Walls
TTITLE27=Congratulations
TTITLE28=Backtrack
TTITLE29=Three Days
TTITLE30=The Comeback
TTITLE31=Down By The River
EXTD=
EXTT0=
EXTT1=
EXTT2=
EXTT3=
EXTT4=
EXTT5=
EXTT6=
EXTT7=
EXTT8=
EXTT9=
EXTT10=
EXTT11=
EXTT12=
EXTT13=
EXTT14=
EXTT15=
EXTT16=
EXTT17=
EXTT18=
EXTT19=
EXTT20=
EXTT21=
EXTT22=
EXTT23=
EXTT24=
EXTT25=
EXTT26=
EXTT27=
EXTT28=
EXTT29=
EXTT30=
EXTT31=
PLAYORDER=
